<svg xmlns="http://www.w3.org/2000/svg" viewBox="-7.5 0 100 100">
  <path fill="#f8ae3d" d="M69.69,74.39c0,6.43-6.2,11.7-13.84,11.7H29.13c-7.64,0-13.84-5.27-13.84-11.7V41.65c0-5.49,4.41-10,10.5-11.34V23.18a16.7,16.7,0,0,1,33.4,0v7.13c6,1.29,10.5,5.85,10.5,11.34Z" />
  <path fill="#078540" d="M85,52.88V16.05a4.43,4.43,0,0,0-1.67-3.39,4.82,4.82,0,0,0-3.7-1.17,45.76,45.76,0,0,1-5.6.35A44.17,44.17,0,0,1,45.71,1.32a4.59,4.59,0,0,0-6.44,0c0,.11-11,10.52-28.28,10.52a45.92,45.92,0,0,1-5.61-.35,4.67,4.67,0,0,0-3.69,1.17A4.25,4.25,0,0,0,0,16.05V52.88c-.12,3-.48,30.4,40.8,46.77a4.91,4.91,0,0,0,1.79.35,5,5,0,0,0,1.79-.35C85.56,83.16,85.2,55.92,85,52.88ZM69.69,74.39c0,6.43-6.2,11.7-13.84,11.7H29.13c-7.64,0-13.84-5.27-13.84-11.7V41.65c0-5.49,4.41-10,10.5-11.34V23.18a16.7,16.7,0,0,1,33.4,0v7.13c6,1.29,10.5,5.85,10.5,11.34Z" />
  <path fill="#078540" d="M54.18,23.18a11.69,11.69,0,0,0-23.38,0V30H54.3V23.18Z" />
  <path fill="#b4181e" d="M23.52,52.29a1.67,1.67,0,0,0-.24.71h0A20.35,20.35,0,0,0,21,62.23a19.64,19.64,0,0,0,.48,4.56A20.9,20.9,0,0,0,33.78,81.53c-4.42-5-1-19.41,8.23-24-6.68,9.82-2.86,10.64-4.65,19.17,5.13-5.73,10-.47,15.39-6.43-.12,4.68-1.55,8.19-3.82,12.16A21.25,21.25,0,0,0,64,62.23a20.5,20.5,0,0,0-3.69-11.81c-.12-.11-.24-.35-.36-.46s-.36-.47-.6-.71a.11.11,0,0,0-.12-.11c2.63,9-4.17,14.61-12.29,15.78,6.92-6.66,2.51-16.48-3.22-23.62a44.65,44.65,0,0,0-6.56-6.66A12,12,0,0,1,39,41.54c.6,11.81-9.67,26.77-15.51,10.75Z" />
</svg>
