<?xml version="1.0" standalone="no"?>
<!DOCTYPE svg PUBLIC "-//W3C//DTD SVG 20010904//EN"
 "http://www.w3.org/TR/2001/REC-SVG-20010904/DTD/svg10.dtd">
<svg version="1.0" xmlns="http://www.w3.org/2000/svg"
 width="848.000000pt" height="848.000000pt" viewBox="0 0 848.000000 848.000000"
 preserveAspectRatio="xMidYMid meet">
<metadata>
Created by potrace 1.11, written by Peter Selinger 2001-2013
</metadata>
<g transform="translate(0.000000,848.000000) scale(0.100000,-0.100000)"
fill="#000000" stroke="none">
<path d="M810 7349 c-19 -3 -51 -10 -70 -13 -54 -11 -181 -56 -226 -81 -77
-43 -89 -50 -132 -82 -67 -49 -124 -104 -176 -169 -25 -33 -50 -64 -56 -71
-23 -28 -114 -223 -104 -223 2 0 -2 -13 -11 -30 -9 -16 -13 -30 -11 -30 3 0 0
-15 -6 -32 -5 -18 -11 -89 -13 -158 -3 -114 1 -154 29 -275 9 -38 31 -95 60
-155 122 -248 356 -432 636 -501 98 -24 286 -32 375 -16 92 16 176 37 190 47
6 4 30 15 55 24 59 23 153 80 215 130 53 43 164 156 165 168 0 4 7 13 15 22
16 16 118 210 123 235 2 8 10 40 18 70 26 97 34 219 21 334 -29 255 -179 497
-407 654 -152 104 -349 162 -545 160 -60 0 -126 -4 -145 -8z"/>
<path d="M2955 7340 c-158 -34 -255 -77 -380 -166 -182 -131 -304 -309 -361
-529 -17 -65 -22 -130 -19 -235 2 -69 6 -134 8 -145 18 -84 39 -146 79 -230
27 -58 48 -95 58 -105 3 -3 14 -18 25 -35 61 -97 231 -237 355 -294 41 -18 83
-38 93 -42 25 -13 134 -39 197 -47 70 -9 233 -8 285 1 71 13 119 24 145 35 14
5 27 10 30 10 30 3 145 60 215 106 173 115 298 276 369 474 14 39 25 74 25 77
0 3 2 18 5 33 24 121 24 260 1 362 -2 8 -6 24 -9 36 -20 89 -99 268 -131 294
-8 7 -15 17 -15 22 0 9 -36 51 -110 127 -112 115 -313 219 -495 257 -74 15
-290 12 -370 -6z"/>
<path d="M5218 7355 c-2 -2 -22 -5 -45 -8 -92 -13 -256 -70 -317 -112 -19 -13
-37 -21 -40 -17 -3 3 -6 1 -6 -4 0 -5 -15 -18 -32 -29 -35 -20 -51 -33 -127
-105 -257 -245 -345 -663 -208 -990 9 -19 15 -37 15 -40 -2 -10 92 -153 129
-198 150 -181 358 -299 598 -339 51 -9 247 -9 302 0 189 29 405 139 531 268
49 51 102 113 102 120 0 3 9 16 20 29 11 13 20 29 20 36 0 7 4 14 8 16 10 3
72 133 77 158 2 9 10 39 18 66 8 27 15 52 16 57 0 4 1 8 2 10 8 28 11 231 4
267 -3 14 -7 39 -10 56 -16 123 -106 314 -195 418 -139 161 -308 266 -508 316
-41 10 -79 17 -84 14 -4 -3 -8 -1 -8 3 0 8 -254 15 -262 8z"/>
<path d="M7409 7356 c-2 -2 -22 -6 -44 -9 -136 -18 -299 -87 -425 -179 -75
-56 -184 -169 -211 -220 -6 -13 -15 -25 -20 -28 -25 -17 -106 -215 -125 -305
-25 -120 -22 -296 8 -399 6 -23 12 -45 13 -51 1 -5 5 -19 10 -30 4 -11 18 -45
31 -76 29 -72 108 -190 170 -255 54 -56 176 -154 192 -154 6 0 12 -4 14 -8 8
-21 223 -108 293 -119 17 -2 41 -7 55 -9 62 -12 232 -11 312 2 83 13 189 44
233 67 11 6 26 12 33 13 8 1 21 9 30 17 10 8 27 18 40 21 12 4 22 12 22 17 0
5 5 9 11 9 20 0 144 106 200 172 93 107 140 190 184 323 33 98 42 160 42 275
0 220 -73 420 -215 589 -31 36 -59 68 -62 71 -15 11 -93 76 -104 85 -37 35
-216 125 -276 140 -8 3 -42 11 -75 20 -53 14 -325 31 -336 21z"/>
<path d="M5228 5165 c-2 -1 -21 -5 -43 -9 -56 -8 -80 -13 -144 -32 -64 -18
-204 -82 -209 -95 -2 -5 -9 -9 -15 -9 -7 0 -25 -11 -41 -25 -16 -14 -32 -25
-36 -25 -9 0 -141 -131 -174 -174 -75 -96 -161 -286 -168 -368 -1 -16 -5 -28
-8 -28 -5 0 -9 -45 -14 -140 -1 -38 14 -174 28 -245 8 -39 57 -161 88 -215 70
-125 173 -238 293 -319 69 -47 177 -103 225 -116 3 0 30 -8 60 -17 84 -25 115
-29 247 -33 203 -6 375 42 543 151 139 89 250 209 324 348 35 66 79 176 71
176 -3 0 -1 8 4 18 15 28 22 81 28 201 5 101 2 136 -22 251 -20 97 -107 270
-180 358 -92 111 -242 221 -375 276 -80 32 -103 39 -205 61 -31 7 -271 16
-277 10z"/>
<path d="M7408 5165 c-2 -2 -23 -6 -48 -10 -183 -26 -381 -128 -521 -268 -65
-64 -178 -217 -161 -217 4 0 2 -4 -4 -8 -9 -6 -44 -73 -44 -85 0 -3 -5 -18
-12 -34 -6 -15 -12 -32 -13 -38 -2 -5 -8 -29 -14 -51 -13 -50 -24 -141 -25
-209 -1 -192 63 -390 178 -545 64 -86 153 -171 241 -227 28 -18 55 -37 62 -43
7 -5 16 -10 21 -10 4 0 32 -11 61 -25 104 -51 224 -76 371 -80 74 -2 139 0
145 3 5 3 21 7 35 7 38 2 156 34 208 56 175 74 302 173 411 319 49 65 74 111
122 215 5 11 20 63 33 115 20 81 23 114 21 225 -2 72 -5 137 -8 145 -2 8 -7
33 -12 55 -4 22 -11 45 -15 50 -4 6 -11 24 -15 40 -11 39 -9 33 -34 85 -23 47
-29 57 -75 130 -40 63 -181 200 -250 245 -57 36 -152 87 -171 91 -5 2 -37 12
-69 24 -33 12 -73 23 -90 26 -17 2 -42 7 -56 10 -26 7 -266 15 -272 9z"/>
<path d="M3038 2974 c-2 -1 -24 -5 -49 -8 -100 -13 -316 -91 -327 -118 -2 -4
-8 -8 -13 -8 -14 0 -129 -82 -129 -92 0 -4 -5 -8 -10 -8 -18 0 -109 -102 -160
-180 -28 -41 -55 -80 -60 -87 -6 -7 -10 -18 -10 -25 0 -8 -6 -22 -13 -33 -12
-18 -45 -113 -54 -155 -2 -8 -6 -28 -10 -45 -8 -41 -9 -281 -1 -330 14 -80 76
-240 120 -310 76 -118 170 -215 284 -291 112 -75 208 -114 369 -150 62 -13
273 -12 347 3 97 19 92 18 103 24 6 4 23 9 39 13 37 9 172 73 211 100 191 133
305 278 379 484 14 39 24 72 21 72 -2 0 0 11 5 24 20 52 29 252 15 326 -14 78
-39 168 -51 188 -8 12 -12 22 -9 22 8 0 -41 95 -80 155 -49 77 -136 172 -202
222 -21 15 -40 30 -43 33 -25 26 -161 96 -240 122 -125 42 -180 51 -307 53
-68 1 -124 1 -125 -1z"/>
<path d="M5228 2975 c-2 -1 -22 -5 -45 -8 -48 -7 -92 -16 -113 -24 -8 -3 -21
-7 -27 -9 -42 -8 -138 -51 -213 -95 -107 -62 -268 -218 -305 -296 -8 -17 -19
-33 -23 -35 -15 -6 -109 -238 -97 -238 3 0 0 -11 -5 -25 -10 -26 -23 -127 -23
-185 -2 -98 34 -290 61 -335 4 -5 8 -18 9 -27 2 -9 23 -52 49 -95 77 -131 149
-210 268 -296 183 -133 358 -187 591 -182 131 3 163 7 210 25 14 5 25 7 25 5
0 -3 16 1 35 9 20 9 36 15 38 15 19 -2 161 69 227 115 71 48 193 165 214 204
5 9 17 26 26 37 47 53 122 230 147 345 9 46 9 295 0 340 -18 80 -41 149 -72
210 -51 104 -78 150 -87 150 -4 0 -8 5 -8 10 0 21 -133 155 -197 198 -21 14
-40 28 -43 32 -9 11 -112 65 -170 88 -47 19 -115 38 -202 58 -25 6 -265 14
-270 9z"/>
</g>
</svg>
